<mxfile host="app.diagrams.net" modified="2023-07-06T06:20:21.581Z" agent="Mozilla/5.0 (Windows NT 10.0; Win64; x64) AppleWebKit/537.36 (KHTML, like Gecko) Chrome/114.0.0.0 Safari/537.36" version="21.6.1" etag="PBkvm2N9zQwi0mXXWcOv" type="github">
  <diagram name="第 1 页" id="QgXehtyliL35S3bFb-MT">
    <mxGraphModel>
      <root>
        <mxCell id="0" />
        <mxCell id="1" parent="0" />
      </root>
    </mxGraphModel>
  </diagram>
</mxfile>
